<svg width="499" height="169" viewBox="0 0 499 169" fill="none" xmlns="http://www.w3.org/2000/svg">
<path d="M0.765015 0.139038H152.665V48.9391H105.865V168.139H47.5649V48.9391H0.665039V0.139038H0.765015ZM328.565 78.0391V90.239C328.565 133.039 293.065 168.139 249.765 168.139H214.465H167.765V0.139038H214.465H249.765C293.065 0.139038 328.565 35.2391 328.565 78.0391ZM281.365 81.3391C281.365 72.739 277.865 64.5391 271.765 58.4391C265.665 52.3391 257.365 48.9391 248.665 48.9391H214.465V118.339H248.565C257.265 118.339 265.565 114.939 271.665 108.839C277.765 102.739 281.265 94.5391 281.265 86.0391L281.365 81.3391ZM422.465 123.339C422.465 147.539 403.765 167.239 380.665 167.239C357.565 167.239 338.865 147.639 338.865 123.339C338.865 99.139 357.565 79.5391 380.665 79.5391C403.765 79.5391 422.465 99.139 422.465 123.339ZM401.165 123.339C401.165 111.439 391.965 101.839 380.665 101.839C369.365 101.839 360.165 111.439 360.165 123.339C360.165 135.239 369.365 144.839 380.665 144.839C391.965 144.839 401.165 135.239 401.165 123.339ZM300.565 0.139038C306.165 3.73904 311.365 7.83906 316.065 12.5391C326.465 22.7391 334.265 35.2391 338.965 48.9391H384.565V66.5391C413.165 68.5391 435.865 93.239 435.865 123.339C435.865 131.839 434.065 140.339 430.365 148.039C426.665 155.739 421.365 162.639 414.665 168.139H452.065V48.9391H498.865V0.139038H300.565Z" fill="url(#paint0_linear_1103_3217)"/>
<defs>
<linearGradient id="paint0_linear_1103_3217" x1="489.873" y1="186.895" x2="18.2767" y2="-36.7763" gradientUnits="userSpaceOnUse">
<stop offset="0.0941815" stop-color="#1FA772"/>
<stop offset="0.9159" stop-color="#228194"/>
</linearGradient>
</defs>
</svg>
