<svg width="60" height="61" viewBox="0 0 60 61" fill="none" xmlns="http://www.w3.org/2000/svg">
<path d="M42.72 18.0515C39.21 14.5415 34.62 12.7715 30 12.7715V30.7715L17.28 43.4915C24.3 50.5115 35.7 50.5115 42.75 43.4915C49.77 36.4715 49.77 25.0715 42.72 18.0515ZM30 0.771484C13.44 0.771484 0 14.2115 0 30.7715C0 47.3315 13.44 60.7715 30 60.7715C46.56 60.7715 60 47.3315 60 30.7715C60 14.2115 46.56 0.771484 30 0.771484ZM30 54.7715C16.74 54.7715 6 44.0315 6 30.7715C6 17.5115 16.74 6.77148 30 6.77148C43.26 6.77148 54 17.5115 54 30.7715C54 44.0315 43.26 54.7715 30 54.7715Z" fill="white"/>
</svg>
